# xmcd
#
# Track frame offsets:
#	150
#	22125
#	46095
#	70230
#	96475
#	123495
#	139210
#	163520
#	183130
#	204412
#	229522
#	251302
#
# Disc length: 3587 seconds
# Revision: 1
# Processed by: cddbd v1.4PL0 Copyright (c) Steve Scherf et al.
# Submitted via: cdrLabel 6.0
#
DISCID=9f0e010c
DTITLE=Antonello Venditti - Overpack Cd1
DYEAR=1900
DGENRE=
TTITLE0=Ogni volta
TTITLE1=Benvenuti in Paradiso
TTITLE2=Parla come baci
TTITLE3=Giulio Cesare
TTITLE4=Compagno di scuola
TTITLE5=Peppino
TTITLE6=Il compleanno di Cristina
TTITLE7=Questa insostenibile leggerezza dell'essere
TTITLE8=Segreti
TTITLE9=Buona domenica
TTITLE10=In questo mondo di ladri
TTITLE11=Stella
EXTD=
EXTT0=
EXTT1=
EXTT2=
EXTT3=
EXTT4=
EXTT5=
EXTT6=
EXTT7=
EXTT8=
EXTT9=
EXTT10=
EXTT11=
PLAYORDER=
